<svg width="138" height="185" viewBox="0 0 138 185" fill="none" xmlns="http://www.w3.org/2000/svg">
<path fill-rule="evenodd" clip-rule="evenodd" d="M78.8431 127.184C79.6957 126.482 79.8179 125.221 79.1159 124.368C78.414 123.515 77.1538 123.393 76.3011 124.095L7.6575 180.629C6.80487 181.331 6.68272 182.592 7.38467 183.445C8.08661 184.298 9.34685 184.42 10.1995 183.718L78.8431 127.184ZM69.658 101.663C70.7619 101.704 71.6898 100.843 71.7306 99.7392C71.7714 98.6353 70.9097 97.7072 69.8059 97.6662L2.18225 95.1496C1.07845 95.1085 0.150547 95.97 0.109733 97.0738C0.0689161 98.1777 0.930641 99.1058 2.03445 99.1469L69.658 101.663ZM84.8902 83.1263C85.4445 84.0817 86.6683 84.4068 87.6236 83.8524C88.5789 83.2979 88.9041 82.0739 88.3498 81.1184L42.4311 1.96253C41.8768 1.00709 40.6531 0.682012 39.6977 1.23647C38.7424 1.79092 38.4173 3.01494 38.9715 3.97038L84.8902 83.1263ZM108.624 80.8134C107.626 80.3402 107.2 79.1474 107.673 78.1491L133.227 24.1852C133.7 23.1869 134.892 22.7612 135.89 23.2343C136.888 23.7075 137.314 24.9003 136.841 25.8986L111.287 79.8625C110.814 80.8608 109.622 81.2865 108.624 80.8134ZM84.8768 136.145C85.7654 136.801 85.9543 138.053 85.2986 138.942L63.1897 168.916C62.534 169.805 61.2821 169.994 60.3934 169.338C59.5048 168.682 59.3159 167.429 59.9716 166.54L82.0805 136.567C82.7362 135.678 83.9881 135.489 84.8768 136.145ZM70.7644 117.311C71.82 116.986 72.4121 115.867 72.0868 114.811C71.7616 113.756 70.6422 113.164 69.5866 113.489L31.7844 125.137C30.7288 125.462 30.1367 126.582 30.4619 127.637C30.7872 128.693 31.9065 129.285 32.9621 128.96L70.7644 117.311ZM75.095 88.3729C74.5217 89.317 73.2917 89.6172 72.3478 89.0435L39.353 68.9877C38.4091 68.4139 38.1087 67.1835 38.682 66.2394C39.2554 65.2952 40.4853 64.995 41.4292 65.5687L74.4241 85.6246C75.368 86.1983 75.6683 87.4288 75.095 88.3729ZM98.6557 76.1545C98.8552 77.2409 99.8976 77.96 100.984 77.7606C102.07 77.5612 102.789 76.5188 102.59 75.4324L96.0532 39.8318C95.8537 38.7454 94.8113 38.0263 93.7249 38.2257C92.6385 38.4251 91.9195 39.4675 92.1189 40.5539L98.6557 76.1545Z" fill="#FF7F34"/>
</svg>
